<svg width="118" height="24" viewBox="0 0 118 24" fill="none" xmlns="http://www.w3.org/2000/svg">
<g clip-path="url(#clip0_312_180)">
<path fill-rule="evenodd" clip-rule="evenodd" d="M24.5621 9.11742C26.0895 15.6475 21.9361 22.1839 15.3075 23.6888C14.3793 23.8984 13.4511 24 12.5379 24C6.92116 24.0021 1.82877 20.1898 0.515917 14.5719C-1.00966 8.04162 3.14161 1.50502 9.77038 0L10.3977 2.68197C5.26882 3.84619 2.05653 8.90316 3.23832 13.9559C4.42009 19.0087 9.55336 22.1732 14.6823 21.009C19.8112 19.8448 23.0235 14.7878 21.8417 9.73506L24.5621 9.11742ZM9.1258 7.13358L9.12862 7.13154L9.13006 7.13358H9.1258ZM9.12862 7.13154C10.398 6.24402 11.9417 5.89544 13.4769 6.15138C15.0132 6.40752 16.3562 7.23516 17.2586 8.48616C18.161 9.73722 18.5156 11.2592 18.2556 12.7727C17.9956 14.2862 17.1554 15.6091 15.8856 16.4981C13.2642 18.3334 9.61786 17.728 7.75276 15.1456C7.34236 14.5762 7.04368 13.9496 6.86536 13.2807L4.16446 13.9813C4.42871 14.972 4.87136 15.8992 5.4773 16.7395C7.15756 19.0679 9.81766 20.3084 12.5186 20.3084C14.2482 20.3084 15.993 19.7983 17.5057 18.7378C19.3836 17.4232 20.6277 15.4652 21.0123 13.2278C21.3948 10.9903 20.8706 8.7381 19.5362 6.89016C18.2018 5.04007 16.2143 3.81445 13.9431 3.43557C11.672 3.05877 9.38578 3.57527 7.50994 4.88978L9.12862 7.13154ZM12.8988 9.81828C12.7982 9.80352 12.6932 9.79296 12.5883 9.7929C11.4371 9.7935 10.4987 10.7162 10.4987 11.8525C10.4987 12.5193 10.8232 13.112 11.3238 13.4888L10.2194 16.0585C8.7196 15.2351 7.70332 13.6603 7.70332 11.8525C7.70332 9.20016 9.895 7.04106 12.5873 7.04106C13.0793 7.04106 13.5542 7.11516 14.0033 7.24848L12.8988 9.81828ZM46.584 11.036C47.3466 8.4831 49.7405 6.61824 52.5786 6.61824C56.0316 6.61824 58.8293 9.37428 58.8293 12.7759C58.8293 16.1776 56.0297 18.9337 52.5786 18.9337C50.3636 18.9337 48.4169 17.797 47.3081 16.0823C46.5817 17.8498 44.9873 18.9527 42.7957 18.9527C40.6041 18.9527 38.5176 17.3863 38.1073 15.2525C37.9095 14.2154 37.9977 13.3072 38.1676 12.4499C38.2836 11.8594 38.5134 11.182 39.1796 9.99666C39.5126 9.39972 40.1143 8.64192 40.9371 8.00472C42.3466 6.91248 43.5842 6.62034 43.5842 6.62034H45.0713L45.138 6.71772C45.138 6.71772 44.3234 7.29774 43.5349 8.1381C42.7463 8.9763 42.321 9.74052 42.321 9.74052C44.2654 9.30018 45.7608 10.1405 46.584 11.036ZM40.5461 14.1518C40.5461 15.4409 41.5196 16.366 42.8601 16.366C44.1987 16.366 45.1722 15.4388 45.1722 14.1518C45.1722 12.8648 44.2032 11.9377 42.8601 11.9377C41.5173 11.9377 40.5461 12.8627 40.5461 14.1518ZM48.7413 12.7738C48.7413 14.8631 50.4601 16.5544 52.5786 16.5544C54.6993 16.5544 56.4162 14.8631 56.4162 12.7738C56.4162 10.6846 54.6993 8.99328 52.5786 8.99328C50.4582 8.99328 48.7413 10.6846 48.7413 12.7738ZM28.853 6.62046H37.4992V6.6183L37.5659 6.71568L34.7982 10.2888C36.0102 10.5809 36.919 11.2393 37.4284 12.2151C37.0694 13.3835 37.061 14.9182 37.538 16.2242C36.8418 17.9134 35.2067 18.9485 33.1782 18.9485C30.4967 18.9485 28.4532 16.9503 28.5371 14.3869H31.0317C31.064 15.6125 31.9685 16.438 33.159 16.438C34.4675 16.438 35.2711 15.4432 35.2711 14.3699C35.2711 13.1803 34.2633 12.1727 32.7054 12.1727H30.5268L30.4601 12.0754L32.9721 8.8515H28.853V6.62046ZM60.1593 6.70152H62.2822V18.7312H60.1593V6.70152ZM69.8434 10.4167C69.205 10.0293 68.4274 9.83454 67.51 9.83454C66.6892 9.83454 65.9458 10.0315 65.2822 10.4252C64.618 10.8188 64.0936 11.3544 63.7114 12.0296C63.3286 12.7049 63.1354 13.4797 63.1354 14.3518C63.1354 15.2239 63.3244 15.9584 63.7024 16.6505C64.081 17.3428 64.6096 17.891 65.2906 18.2953C65.9716 18.6997 66.7648 18.9028 67.6714 18.9028C68.578 18.9028 69.3538 18.7039 70.0282 18.3038C70.7032 17.9059 71.1754 17.3978 71.4466 16.7797L69.7294 15.9499C69.5362 16.2802 69.268 16.549 68.9284 16.7564C68.5888 16.9639 68.1742 17.0676 67.6882 17.0676C67.0504 17.0676 66.5176 16.8771 66.0856 16.4939C65.6536 16.1108 65.4046 15.6007 65.3398 14.9614H71.6914C71.7346 14.845 71.7646 14.7095 71.782 14.555C71.7988 14.4004 71.8054 14.2438 71.8054 14.0851C71.8054 13.3082 71.6374 12.6012 71.3026 11.9619C70.9672 11.3227 70.4818 10.8104 69.8434 10.4209V10.4167ZM65.3872 13.3611C65.5054 12.7874 65.7568 12.343 66.1414 12.0275C66.5236 11.7143 66.9814 11.5576 67.51 11.5576C68.071 11.5576 68.5396 11.7248 68.911 12.0614C69.283 12.398 69.4912 12.8298 69.5344 13.3633H65.3872V13.3611ZM76.8958 9.83454C78.0388 9.83454 78.9886 10.2135 79.7272 10.9628L79.7296 10.9607V10.0251H81.616V18.7313H79.7296V17.783C78.9928 18.5387 78.043 18.9219 76.8976 18.9219C75.6382 18.9219 74.5558 18.4753 73.675 17.5904C72.811 16.7077 72.3724 15.6197 72.3724 14.3708C72.3724 13.1219 72.8152 12.0445 73.69 11.1661C74.5708 10.2833 75.6496 9.83454 76.8958 9.83454ZM78.8938 16.3183C79.4308 15.8187 79.7122 15.1964 79.7272 14.464V14.2904C79.7104 13.5601 79.4308 12.9377 78.8938 12.4382C78.3418 11.926 77.7466 11.6762 76.9768 11.6762C76.2082 11.6762 75.5722 11.9344 75.0304 12.4678C74.4892 13.0013 74.227 13.613 74.227 14.3708C74.227 15.1286 74.4892 15.7552 75.0304 16.2886C75.5698 16.822 76.24 17.0803 76.9768 17.0803C77.7142 17.0803 78.3418 16.8305 78.8938 16.3183ZM85.6132 10.2181C85.2022 10.4086 84.8842 10.7558 84.6568 11.2553V10.0255H82.6648V18.7318H84.7882V13.8737C84.7882 13.2133 84.9748 12.7011 85.3462 12.3328C85.7182 11.9644 86.2018 11.7824 86.797 11.7824H87.5572V9.93024H87.04C86.5 9.93024 86.0236 10.0255 85.6132 10.2181ZM92.65 9.83454C93.2968 9.83454 93.8728 9.97218 94.375 10.2494L94.3774 10.2515C94.8802 10.5289 95.2714 10.9141 95.5528 11.4094C95.8342 11.9048 95.974 12.4763 95.974 13.1261V18.7356H93.8506V13.6215C93.8506 13.0457 93.6856 12.5906 93.3568 12.2561C93.028 11.9196 92.6002 11.7524 92.0698 11.7524C91.5388 11.7524 91.1092 11.9217 90.7804 12.2625C90.4516 12.6033 90.2866 13.0563 90.2866 13.6193V18.7335H88.1632V10.0272H90.1552V11.0962C90.3916 10.6813 90.7288 10.368 91.1674 10.1542C91.606 9.94038 92.0998 9.83454 92.65 9.83454ZM98.0776 6.98754C97.495 6.98754 97.0048 7.47864 97.0048 8.06076C97.0048 8.59416 97.5358 9.11706 98.0776 9.11706C98.668 9.11706 99.1666 8.63226 99.1666 8.06076C99.1666 7.45956 98.6878 6.98754 98.0776 6.98754ZM97.1512 10.0249H99.0382V18.7312H97.1512V10.0249ZM106.593 10.2494C106.09 9.97218 105.514 9.83454 104.867 9.83454C104.317 9.83454 103.823 9.94038 103.385 10.1542C102.946 10.368 102.609 10.6813 102.373 11.0962V10.0272H100.381V18.7335H102.504V13.6193C102.504 13.0563 102.669 12.6033 102.998 12.2625C103.326 11.9217 103.756 11.7524 104.287 11.7524C104.818 11.7524 105.245 11.9196 105.574 12.2561C105.903 12.5906 106.068 13.0457 106.068 13.6215V18.7356H108.191V13.1261C108.191 12.4763 108.051 11.9048 107.77 11.4094C107.489 10.9141 107.097 10.5289 106.595 10.2515L106.593 10.2494ZM115.787 11.0305V10.025H115.791H117.8V18.2762C117.8 19.0318 117.617 19.7071 117.25 20.3041C116.883 20.9009 116.376 21.3688 115.727 21.7096C115.078 22.0504 114.332 22.2197 113.49 22.2197C112.495 22.2197 111.623 21.989 110.873 21.5254C110.123 21.0619 109.607 20.4479 109.326 19.6817L111.303 18.9472C111.431 19.3515 111.689 19.6796 112.072 19.9294C112.457 20.1791 112.929 20.3041 113.49 20.3041C114.126 20.3041 114.65 20.1241 115.061 19.7685C115.471 19.4129 115.677 18.9154 115.677 18.2762V17.3342C115.05 18.0158 114.203 18.3566 113.133 18.3566C112.31 18.3566 111.578 18.1703 110.929 17.7977C110.28 17.4253 109.773 16.9151 109.405 16.2652C109.038 15.6154 108.855 14.8978 108.855 14.0786C108.855 13.2594 109.038 12.5312 109.405 11.8919C109.773 11.2527 110.273 10.7489 110.912 10.3827C111.548 10.0165 112.272 9.83238 113.082 9.83238C114.216 9.83238 115.116 10.2325 115.787 11.0305ZM113.389 16.4261C114.057 16.4261 114.605 16.2081 115.033 15.772L115.035 15.7741C115.463 15.3381 115.675 14.7793 115.675 14.0977C115.675 13.4161 115.463 12.8551 115.035 12.4127C114.609 11.9703 114.062 11.7502 113.391 11.7502C112.949 11.7502 112.549 11.8517 112.192 12.0529C111.836 12.256 111.558 12.5355 111.359 12.8911C111.156 13.2467 111.058 13.6489 111.058 14.0956C111.058 14.7665 111.275 15.3212 111.713 15.7636C112.149 16.2059 112.721 16.4261 113.389 16.4261Z" fill="black"/>
</g>
<defs>
<clipPath id="clip0_312_180">
<rect width="117.6" height="24" fill="white" transform="translate(0.200195)"/>
</clipPath>
</defs>
</svg>
