<svg width="33" height="32" viewBox="0 0 33 32" fill="none" xmlns="http://www.w3.org/2000/svg">
<g clip-path="url(#clip0_312_179)">
<mask id="mask0_312_179" style="mask-type:luminance" maskUnits="userSpaceOnUse" x="0" y="0" width="33" height="32">
<path d="M0.200195 0H32.2002V32H0.200195V0Z" fill="white"/>
</mask>
<g mask="url(#mask0_312_179)">
<path d="M32.2002 0H0.200195V32H32.2002V0Z" fill="black"/>
<path d="M20.0301 15.8034L32.2004 0H30.4032L18.1924 15.8034H20.0301Z" fill="#FF1721"/>
<path d="M24.6516 22.8555C25.2093 24.4155 26.3585 28.4766 26.8156 28.8001H23.7985C23.7892 28.4412 23.7415 28.0843 23.6562 27.7355C23.5265 27.2709 22.435 23.7601 22.435 23.7601H17.6419L16.8888 24.8286C16.8888 24.8286 17.7939 27.6612 17.8499 27.8001C17.947 28.0509 18.3796 28.8001 18.3796 28.8001H15.4882C15.4882 28.8001 15.4133 28.3675 15.3853 28.1875C15.3625 28.0418 15.111 27.2446 15.111 27.2446C15.111 27.2446 14.4556 27.9629 14.2768 28.2961C14.0968 28.6281 14.0168 28.8001 14.0168 28.8001H11.7545C11.7545 28.8001 11.6791 28.3675 11.6511 28.1875C11.6288 28.0418 11.3522 27.1806 11.3522 27.1806C11.3522 27.1806 10.7191 27.9498 10.5385 28.2818C10.3596 28.6149 10.2825 28.8001 10.2825 28.8001H8.04534C8.04534 28.8001 8.67734 28.1984 8.89848 27.9401C9.27105 27.5018 10.6596 25.6869 10.6596 25.6869L10.1025 23.7601H5.34648C5.34648 23.7601 2.63448 27.3235 2.52762 27.4338C2.41905 27.5424 1.62877 28.6766 1.61105 28.8001H0.200195V27.9029C0.217338 27.8841 0.236195 27.8658 0.255624 27.8486C0.299624 27.8166 2.31162 25.3189 4.16077 22.8555C5.82191 20.7069 7.38077 18.6184 7.51734 18.4195C7.84877 17.9384 8.32591 16.8995 8.32591 16.8995H10.7848C10.7848 16.8995 10.8613 17.8549 10.9333 18.0869C10.9968 18.2921 12.4951 23.2075 12.5299 23.2606L13.3585 22.2012L11.9425 17.8424C11.9425 17.8424 11.6111 17.0218 11.5025 16.8995H14.375C14.365 17.163 14.3966 17.4264 14.4688 17.6801C14.5859 18.0401 15.2013 20.2612 15.2013 20.2612C15.2013 20.2612 17.1602 17.8058 17.275 17.6292C17.4145 17.4092 17.4973 17.1589 17.5173 16.8989H19.9105C19.9105 16.8989 19.4722 17.2189 18.7048 18.1904C18.4465 18.5172 15.919 21.7292 15.919 21.7292C15.919 21.7292 16.1396 22.4812 16.247 22.8549C16.2762 22.9629 16.2968 23.0355 16.2968 23.0435C16.2968 23.0469 16.3522 22.9784 16.4482 22.8549C17.1002 22.0292 20.0665 18.1401 20.2459 17.8069C20.3911 17.5384 20.6042 17.2321 20.7293 16.8989H23.0642C23.0642 16.8989 23.1185 17.5961 23.1899 17.7892L24.6516 22.8555ZM21.0985 19.1738C20.7556 19.9109 18.7373 22.3681 18.7373 22.3681H21.9333C21.9333 22.3681 21.3139 20.4606 21.2059 20.0309C21.1507 19.7559 21.1296 19.4751 21.143 19.1949C21.143 19.1555 21.1356 19.0921 21.0985 19.1738ZM8.81848 19.1738C8.47562 19.9109 6.45848 22.3681 6.45848 22.3681H9.65391C9.65391 22.3681 9.03505 20.4606 8.92705 20.0309C8.8718 19.7559 8.85069 19.4751 8.86419 19.1949C8.86419 19.1555 8.85619 19.0921 8.81848 19.1738ZM13.6305 26.6229L14.5105 25.4149C14.4293 25.3275 13.9333 23.8252 13.9333 23.8252L13.0831 24.9281L13.6305 26.6229Z" fill="white"/>
</g>
</g>
<defs>
<clipPath id="clip0_312_179">
<rect width="32" height="32" fill="white" transform="translate(0.200195)"/>
</clipPath>
</defs>
</svg>
