<svg width="96" height="24" viewBox="0 0 96 24" fill="none" xmlns="http://www.w3.org/2000/svg">
<g clip-path="url(#clip0_312_178)">
<path fill-rule="evenodd" clip-rule="evenodd" d="M75.2755 8.73715V8.73206C75.2769 8.53697 75.247 7.85978 74.773 7.37701C74.4424 7.04004 73.9731 6.86868 73.3747 6.86868H71.5274C70.271 6.86868 70.271 6.58175 70.271 5.81277C70.271 5.79657 70.3116 4.24025 71.5462 3.79492C71.9393 3.65272 72.3757 3.58143 72.843 3.58071H72.8636H75.0398H75.0725C75.8432 3.58071 76.5366 3.0605 76.7565 2.31492C76.8051 2.14967 76.8313 1.97903 76.8313 1.8055C76.8313 0.826997 76.0414 0.0317383 75.0725 0.0317383C75.0355 0.0317383 74.9987 0.0324583 74.9535 0.0360584L74.9603 0.0349784H73.0954H72.9449C72.6521 0.0378584 72.3373 0.0572989 72.0074 0.0922199C71.0181 0.196983 70.1262 0.425949 69.3538 0.771558C66.0949 2.23068 65.9476 5.20363 65.9454 5.23388L65.9373 5.28067C65.78 6.31103 65.5114 6.8694 64.5443 6.8694C64.0647 6.8694 63.6784 7.02457 63.3963 7.33129C62.8963 7.87347 62.9134 8.70296 62.9145 8.71082V8.70296C62.9145 10.3874 64.5008 10.7042 64.5215 10.7071C65.2672 10.7716 65.8292 11.3821 65.8302 12.123C65.8302 12.1627 65.8199 15.9643 65.8199 17.9595C65.8199 18.6658 66.0075 19.2134 66.3777 19.5842C66.8606 20.0699 67.4747 20.072 67.5014 20.072H68.3509C68.4023 20.072 68.8637 20.0644 69.302 19.7621C69.6597 19.5147 70.0862 19.0049 70.0862 17.9775V12.0809C70.1094 11.3083 70.7392 10.7042 71.5202 10.7042H71.5159H71.5184H71.522H71.5309L71.5398 10.7024L71.522 10.7042L71.5131 10.7031C71.5195 10.7042 71.5309 10.7049 73.334 10.7042C73.9235 10.7042 74.3932 10.53 74.7295 10.1876C75.2555 9.65229 75.2762 8.87538 75.2755 8.7245C75.2755 8.72271 75.2755 8.72488 75.2744 8.72847M90.8629 16.9026H90.7956V17.4173H90.8547C91.0551 17.4173 91.2212 17.3367 91.2212 17.1371C91.2212 16.9531 91.0933 16.9026 90.8629 16.9026ZM91.3297 18.5156C91.0626 18.0444 90.9137 17.7494 90.8397 17.7494H90.7948V18.5156H90.361V16.5712H91.0117C91.4434 16.5712 91.6745 16.7991 91.6745 17.1016C91.6745 17.4175 91.4052 17.5731 91.2332 17.6326V17.6379C91.3297 17.6379 91.5997 18.0893 91.8308 18.5156H91.3297ZM91.0102 16.0704C90.1807 16.0704 89.5838 16.7249 89.5838 17.5674C89.5838 18.4111 90.1807 19.0657 91.0102 19.0657C91.8376 19.0657 92.4345 18.4111 92.4345 17.5674C92.4345 16.7249 91.8376 16.0704 91.0102 16.0704ZM91.0102 19.5154C89.8575 19.5154 89.0773 18.6825 89.0773 17.5674C89.0773 16.4539 89.865 15.6187 91.0177 15.6187C92.1368 15.6187 92.9746 16.4539 92.9746 17.5674C92.9746 18.6825 92.1203 19.5154 91.0102 19.5154ZM4.59525 13.7048C4.61744 13.7124 5.39038 14.0279 6.20912 14.3603L8.71436 15.3802C9.30591 15.6169 9.61574 16.2469 9.45013 16.8763C9.24218 17.6731 8.29173 18.4269 6.24955 18.1537C5.43654 18.0454 3.54499 17.6412 3.52638 17.638L3.54141 17.6412C3.49203 17.6236 2.35553 17.2194 1.65452 17.5928C1.4026 17.7273 1.23834 17.9428 1.16463 18.2361C0.899469 19.3005 1.98874 19.6737 1.99983 19.677C2.38952 19.8147 2.81929 19.9126 3.16461 19.9908L3.45804 20.0589C3.48273 20.0643 5.96114 20.657 7.92604 20.6276C9.21786 20.6079 12.3572 20.3192 13.586 18.0615C13.7657 17.7316 14.0187 16.565 13.8927 15.836C13.7438 14.9764 13.4869 14.1258 12.0144 13.1709C11.6401 12.9281 10.4753 12.5437 9.44833 12.2034C8.9019 12.0226 8.3859 11.8516 8.11534 11.7422C6.30753 11.0099 5.9826 10.3501 5.95183 10.0212C5.9318 9.82261 5.99335 9.38434 6.34153 8.99888C6.77344 8.52119 7.49449 8.2795 8.48606 8.2795C9.97435 8.2795 10.5541 8.45274 11.1674 8.63594C11.2826 8.67184 11.4032 8.7073 11.5281 8.74066C11.9929 8.86798 12.3608 8.85002 12.6231 8.68688C12.9344 8.49434 13.0002 8.15795 13.0232 8.04754C13.0621 7.84564 13.1093 7.15459 12.0284 6.72175C11.9364 6.68518 9.71882 5.81736 6.23059 6.30183C5.73892 6.37032 4.77776 6.5593 3.87349 7.06206C2.55341 7.79508 1.87101 8.92752 1.89499 10.3372C1.91288 11.3491 2.38809 12.2521 3.26802 12.9514C3.92788 13.475 4.57236 13.6973 4.60098 13.7048M26.4511 16.7902C24.4235 16.7902 22.7745 15.1407 22.7745 13.1133C22.7745 11.0854 24.4235 9.43633 26.4511 9.43633C28.479 9.43633 30.1277 11.0854 30.1277 13.1133C30.1277 15.1407 28.479 16.7902 26.4511 16.7902ZM26.451 2.81511C20.7636 2.81511 16.1532 7.42538 16.1532 13.1134C16.1532 18.8011 20.7636 23.4121 26.451 23.4121C32.1392 23.4121 36.7502 18.8011 36.7502 13.1134C36.7502 7.42538 32.1392 2.81511 26.451 2.81511ZM40.0914 8.37196V18.3677C40.0914 18.3687 40.0902 18.3695 40.0902 18.3709V18.3802C40.0902 19.2834 40.7985 20.021 41.6895 20.0688C41.7201 20.0709 41.7499 20.072 41.7815 20.072C41.8118 20.072 41.8419 20.0709 41.8721 20.0688C42.7571 20.0214 43.4617 19.2928 43.471 18.3975V18.381V18.3627V14.0586C43.471 11.5456 43.9618 8.48012 46.9629 8.48012C48.5144 8.48012 48.4202 10.4462 48.4202 10.9853V18.4328H48.4227C48.4496 19.3431 49.1952 20.072 50.1111 20.072C51.0439 20.072 51.801 19.3148 51.801 18.381C51.801 18.3468 51.8002 18.3127 51.7981 18.2796V14.1625C51.7981 14.1625 51.3353 8.40076 55.3201 8.48304C56.7645 8.51251 56.7505 10.163 56.7505 10.9874V18.3479C56.7505 18.3591 56.7505 18.3695 56.7505 18.381C56.7505 19.3148 57.5072 20.072 58.4411 20.072C59.3738 20.072 60.1305 19.3148 60.1305 18.381C60.1305 18.3422 60.1291 18.3044 60.1259 18.2663V9.36325C60.1259 7.55361 58.537 6.71435 57.0991 6.71435C54.388 6.71435 54.1088 7.63013 52.5656 7.63013C51.1118 7.63013 50.9785 6.71184 48.6178 6.71184C46.5568 6.71184 46.144 7.63051 44.6255 7.63051C43.4351 7.63051 42.7891 6.71543 41.7815 6.71543C40.0044 6.71543 40.0914 8.37196 40.0914 8.37196ZM85.4195 12.104C85.0417 12.8579 84.5861 13.2907 84.1695 13.2907C83.684 13.2907 83.3751 13.2318 82.6764 12.0416L80.1369 7.58353C79.9491 7.22296 79.5781 6.98046 79.0814 6.8215C78.5825 6.66147 78.0678 6.67734 77.7058 6.86414C77.4918 6.97341 77.346 7.13661 77.2839 7.33363C77.227 7.50987 77.2412 7.70232 77.3235 7.89404L77.3243 7.89546C77.3437 7.93952 81.8446 16.8235 82.1109 17.3893C82.2373 17.6571 82.3024 17.9497 82.3024 18.2602C82.3024 19.8861 81.3988 20.5847 80.9582 20.9464C79.8511 21.8585 78.2832 21.7972 78.2675 21.7968L78.2653 21.7961H78.263H77.4073C76.8717 21.7961 76.274 22.2402 76.274 22.8761C76.274 23.5553 76.7288 23.961 77.4903 23.961H78.2698L78.2608 23.9603C78.3034 23.9639 79.3013 24.0434 80.5804 23.6325C81.7616 23.2525 83.405 22.3636 84.5353 20.2826C84.8053 19.7877 87.1392 14.5384 88.8424 10.7057L90.1171 7.84362C90.1238 7.8253 90.2323 7.42457 90.1732 7.28358C90.0999 7.10735 89.9802 6.95226 89.7842 6.8511C89.4536 6.68016 88.9943 6.70271 88.5275 6.81198C88.1034 6.91173 87.6621 7.35549 87.5289 7.5878L85.4195 12.104Z" fill="black"/>
</g>
<defs>
<clipPath id="clip0_312_178">
<rect width="95" height="23.937" fill="white" transform="translate(0.5 0.0314941)"/>
</clipPath>
</defs>
</svg>
