<svg width="89" height="24" viewBox="0 0 89 24" fill="none" xmlns="http://www.w3.org/2000/svg">
<g clip-path="url(#clip0_312_181)">
<path d="M37.9803 23.0885L31.1294 8.17335H34.9459L40.1702 20.323H37.9179L43.1735 8.17335H46.8337L39.9826 23.0885H37.9803ZM48.8911 23.0885V8.17335H52.3323V23.0885H48.8911ZM50.6117 5.43894C50.0275 5.43894 49.5372 5.24211 49.141 4.84854C48.7659 4.45494 48.5779 3.96815 48.5779 3.38811C48.5779 2.80809 48.7659 2.32126 49.141 1.92767C49.5372 1.53407 50.0275 1.33729 50.6117 1.33729C51.2161 1.33729 51.7061 1.53407 52.0819 1.92767C52.4571 2.32126 52.645 2.80809 52.645 3.38811C52.645 3.96815 52.4571 4.45494 52.0819 4.84854C51.7061 5.24211 51.2161 5.43894 50.6117 5.43894ZM64.2311 23.3992C63.0843 23.3992 62.0626 23.161 61.1654 22.6846C60.2685 22.1874 59.5596 21.5141 59.0383 20.6648C58.5379 19.8154 58.2876 18.8522 58.2876 17.7749V13.4869C58.2876 12.4097 58.5479 11.4464 59.0693 10.5971C59.591 9.74772 60.3003 9.08484 61.1968 8.60842C62.0936 8.11121 63.1053 7.86261 64.2311 7.86261C65.5869 7.86261 66.8069 8.21482 67.8913 8.91913C68.9968 9.60276 69.8623 10.5349 70.4877 11.7157C71.1346 12.8758 71.4577 14.1912 71.4577 15.662C71.4577 17.1121 71.1346 18.4275 70.4877 19.6083C69.8623 20.7684 68.9968 21.6902 67.8913 22.3738C66.8069 23.0574 65.5869 23.3992 64.2311 23.3992ZM63.6684 20.1676C64.5025 20.1676 65.2321 19.9812 65.8583 19.6083C66.5048 19.2147 67.0051 18.6761 67.3596 17.9925C67.7351 17.3089 67.9227 16.5217 67.9227 15.6309C67.9227 14.7402 67.7351 13.953 67.3596 13.2694C67.0051 12.5857 66.5048 12.0575 65.8583 11.6846C65.2321 11.291 64.5025 11.0943 63.6684 11.0943C62.8339 11.0943 62.0936 11.291 61.4471 11.6846C60.8006 12.0575 60.3003 12.5857 59.9458 13.2694C59.591 13.953 59.4138 14.7402 59.4138 15.6309C59.4138 16.5217 59.591 17.3089 59.9458 17.9925C60.3003 18.6761 60.8006 19.2147 61.4471 19.6083C62.0936 19.9812 62.8339 20.1676 63.6684 20.1676ZM56.1915 23.0885V0.71582H59.6327V11.84L59.0383 15.4445L59.6327 19.08V23.0885H56.1915ZM81.3147 23.3992C79.8127 23.3992 78.4572 23.0678 77.2476 22.4049C76.0591 21.7213 75.1101 20.789 74.4008 19.6083C73.7122 18.4275 73.3685 17.1017 73.3685 15.6309C73.3685 14.1601 73.7122 12.8447 74.4008 11.6846C75.0891 10.5039 76.0173 9.57167 77.1852 8.88804C78.3738 8.20444 79.6875 7.86261 81.1267 7.86261C82.5239 7.86261 83.7546 8.18373 84.8179 8.8259C85.9027 9.4681 86.7472 10.3485 87.352 11.4671C87.9778 12.5857 88.2906 13.8598 88.2906 15.2891C88.2906 15.5377 88.2699 15.7966 88.2282 16.066C88.2071 16.3146 88.1654 16.5942 88.103 16.9049H75.7773V14.1084H86.32L85.0373 15.227C84.9955 14.3155 84.8179 13.549 84.5052 12.9276C84.1925 12.3061 83.7442 11.8297 83.1597 11.4982C82.597 11.1667 81.8984 11.001 81.0643 11.001C80.1882 11.001 79.4272 11.1875 78.7807 11.5603C78.1338 11.9332 77.6335 12.4615 77.2786 13.1451C76.9242 13.808 76.7473 14.6055 76.7473 15.5377C76.7473 16.4699 76.9349 17.2882 77.3104 17.9925C77.6855 18.6968 78.2172 19.2457 78.9058 19.6393C79.5941 20.0123 80.3864 20.1987 81.2829 20.1987C82.0546 20.1987 82.7635 20.0641 83.4104 19.7947C84.078 19.5254 84.6407 19.1318 85.0997 18.6139L87.2892 20.8201C86.5596 21.6695 85.6735 22.3116 84.6304 22.7467C83.5877 23.1817 82.4822 23.3992 81.3147 23.3992Z" fill="black"/>
<path fill-rule="evenodd" clip-rule="evenodd" d="M19.3163 14.4819C23.1955 14.5228 26.4212 11.4826 26.5613 7.60952C26.7037 3.67492 23.6079 0.370686 19.6468 0.229298C16.5826 0.1199 13.8982 1.93513 12.7736 4.58408L11.8692 3.22163C9.97126 0.362436 6.09917 -0.427093 3.22067 1.45814C0.342171 3.34338 -0.452701 7.18945 1.44527 10.0487L8.61419 20.8482C10.5122 23.7074 14.3842 24.497 17.2628 22.6117C19.9893 20.826 20.8464 17.281 19.3163 14.4819ZM22.7074 7.48343C22.6417 9.29746 21.1081 10.7152 19.2817 10.65C17.4555 10.5848 16.0282 9.06138 16.0938 7.24735C16.1594 5.43332 17.6931 4.01558 19.5195 4.08082C21.3457 4.14599 22.773 5.66944 22.7074 7.48343ZM5.44438 4.71498C6.51711 4.0124 7.9601 4.30664 8.66743 5.37217L15.8249 16.1546C16.5322 17.2201 16.236 18.6534 15.1633 19.356C14.0906 20.0585 12.6476 19.7643 11.9403 18.6988L4.78275 7.91636C4.07544 6.85083 4.37165 5.41751 5.44438 4.71498Z" fill="black"/>
</g>
<defs>
<clipPath id="clip0_312_181">
<rect width="87.8769" height="24" fill="white" transform="translate(0.413574)"/>
</clipPath>
</defs>
</svg>
