<svg width="76" height="20" viewBox="0 0 76 20" fill="none" xmlns="http://www.w3.org/2000/svg">
<g clip-path="url(#clip0_312_182)">
<path d="M58.7337 15.3432L57.5328 15.3211C56.0943 15.3211 55.5583 14.2181 55.5583 13.5361V5.46367H58.5753V3.33481H55.5583V0.5H53.1768V13.6831C53.1768 15.8892 54.8031 17.2055 57.5291 17.2055H58.7632L58.7337 15.3432Z" fill="black"/>
<path d="M69.2003 4.23694C68.1511 4.23048 67.1158 4.47662 66.1822 4.9545C65.2486 5.43237 64.4442 6.12788 63.8372 6.98207C63.2302 7.83626 62.8385 8.82394 62.6953 9.86137C62.5521 10.8988 62.6617 11.9554 63.0147 12.9416C63.3677 13.9278 63.9537 14.8145 64.7231 15.5265C65.4924 16.2385 66.4225 16.7549 67.4343 17.0318C68.4462 17.3088 69.51 17.3381 70.5357 17.1173C71.5613 16.8966 72.5185 16.4322 73.3261 15.7637V17.1517H75.6542V10.7393C75.6601 9.0235 74.9839 7.37537 73.7741 6.1564C72.5642 4.93743 70.9193 4.24715 69.2003 4.23694ZM73.3261 10.7393C73.3184 11.5548 73.069 12.3497 72.6094 13.0238C72.1497 13.698 71.5003 14.2212 70.7431 14.5275C69.9859 14.8337 69.1548 14.9094 68.3546 14.7448C67.5544 14.5803 66.821 14.1829 66.2467 13.6029C65.6725 13.0228 65.2832 12.286 65.1279 11.4854C64.9727 10.6848 65.0584 9.85622 65.3743 9.10418C65.6902 8.35215 66.2222 7.71032 66.903 7.25962C67.5839 6.80893 68.3833 6.56956 69.2003 6.5717C70.3001 6.58189 71.3513 7.02577 72.1246 7.80651C72.8978 8.58726 73.3304 9.64152 73.3279 10.7393H73.3261Z" fill="black"/>
<path d="M61.8438 3.31641H59.5562V17.1485H61.8438V3.31641Z" fill="black"/>
<path d="M61.8648 0.5H59.5771V2.6068H61.8648V0.5Z" fill="black"/>
<path d="M45.4867 7.9676C45.4867 6.76896 46.2769 6.24135 47.5257 6.24135C48.8979 6.24135 49.6899 6.91236 49.8759 8.13489C49.8778 8.21099 49.9092 8.2834 49.9635 8.33688C50.0177 8.39036 50.0907 8.42076 50.1669 8.42168H51.9996C52.0679 8.41384 52.1304 8.37923 52.1732 8.32546C52.2161 8.27169 52.2357 8.20315 52.228 8.13489C52.0198 5.61813 50.1669 4.37354 47.5662 4.37354C44.8421 4.37354 43.0941 5.68983 43.0941 8.18269C43.0941 13.2622 50.2295 10.841 50.2295 13.5729C50.2295 14.7237 49.3565 15.3708 47.9622 15.3708C46.3192 15.3708 45.4038 14.6759 45.2988 13.0692C45.3025 12.9986 45.2786 12.9293 45.2323 12.8759C45.1859 12.8224 45.1207 12.7889 45.0502 12.7824H43.1144C43.0452 12.7921 42.9819 12.8266 42.9362 12.8793C42.8905 12.932 42.8655 12.9994 42.8657 13.0692C43.0112 15.8488 45.1128 17.2864 47.9622 17.2864C50.5832 17.2864 52.6221 15.8488 52.6221 13.3339C52.624 8.111 45.4867 10.6259 45.4867 7.9676Z" fill="black"/>
<path d="M40.202 12.6299L40.178 12.8321C40.0049 14.3285 38.559 15.2955 36.4943 15.2955C34.1164 15.2955 32.5361 13.8432 32.3206 11.4882H42.6259V10.3411C42.6259 6.55213 40.3033 4.28906 36.4151 4.28906C32.3353 4.28906 29.6978 6.90878 29.6978 10.9643C29.6978 14.8984 32.3556 17.4391 36.4685 17.4391C40.0693 17.4391 42.4859 15.6448 42.6259 12.867L42.6369 12.6299H40.202ZM32.4311 9.59284C32.875 7.55406 34.2988 6.43447 36.4666 6.43447C38.7948 6.43447 40.1504 7.58531 40.1762 9.59284H32.4311Z" fill="black"/>
<path d="M22.4018 15.0234L29.8595 6.75978V4.58496H19.7127V6.65683H26.9788L19.58 14.8377L19.5229 14.9002V17.1302H30.3863V15.0234H22.4018Z" fill="black"/>
<path d="M8.14603 3.67292C6.88353 2.92096 5.44071 2.52393 3.9705 2.52393C3.87288 2.52393 3.77527 2.52393 3.67212 2.52393H3.66107C2.67503 2.55945 1.70379 2.77439 0.795114 3.15817C0.410602 4.06513 0.195255 5.03454 0.159668 6.01872V6.03158C0.159668 6.1327 0.159668 6.23013 0.159668 6.32757C0.159229 7.60502 0.460211 8.86462 1.03824 10.0044C1.36799 9.53213 1.74238 9.09258 2.15626 8.69174C1.65651 7.3757 1.59196 5.93455 1.97207 4.57925L2.02364 4.39541L2.20783 4.3421C2.7836 4.18233 3.37843 4.10131 3.97603 4.10127C5.69066 4.09967 7.33795 4.76737 8.56598 5.96173C8.64886 6.04078 8.72991 6.12351 8.80727 6.20623C9.57118 6.24688 10.3265 6.38655 11.0543 6.62171C10.3521 5.41153 9.35328 4.39937 8.15156 3.68028L8.14603 3.67292Z" fill="black"/>
<path d="M14.4965 12.6816C14.784 13.4309 14.9308 14.2268 14.9293 15.0292C14.9289 15.6257 14.8478 16.2193 14.688 16.7941L14.6346 16.9779L14.4504 17.0312C13.8746 17.1907 13.2798 17.2717 12.6822 17.2721C10.9676 17.2737 9.3203 16.606 8.09227 15.4116C7.97254 15.2976 7.85835 15.1781 7.75152 15.0586C7.12683 14.3564 6.65851 13.53 6.37748 12.6338C5.73914 12.4338 5.13443 12.1394 4.5835 11.7605C4.80561 13.4202 5.53496 14.9712 6.67218 16.2021C7.21126 16.7842 7.8316 17.2858 8.51406 17.6912C9.77656 18.4432 11.2194 18.8402 12.6896 18.8402C12.7872 18.8402 12.8867 18.8402 12.9898 18.8402H12.999C13.98 18.7998 14.9455 18.5818 15.8484 18.1968C16.2329 17.2898 16.4483 16.3204 16.4838 15.3362V15.3234C16.4838 15.2222 16.4838 15.1248 16.4838 15.0274C16.4836 13.7498 16.182 12.4902 15.6034 11.3506C15.2787 11.8292 14.908 12.2749 14.4965 12.6816Z" fill="black"/>
<path d="M16.4847 6.03532C16.4491 5.05115 16.2338 4.08173 15.8493 3.17478C14.9406 2.79099 13.9693 2.57605 12.9833 2.54053H12.9704C12.8691 2.54053 12.7715 2.54053 12.6739 2.54053C11.3939 2.54073 10.1319 2.84177 8.99011 3.41928C9.46907 3.74878 9.91449 4.12438 10.3199 4.5407C11.0707 4.25367 11.8681 4.10722 12.672 4.10868C13.2696 4.10906 13.8644 4.19007 14.4402 4.34951L14.6244 4.40282L14.6778 4.58666C14.8376 5.16141 14.9187 5.75507 14.9191 6.35153C14.9207 8.06292 14.2517 9.70709 13.0551 10.9328C12.9391 11.0523 12.8212 11.1663 12.7015 11.2729C11.9567 11.9349 11.0711 12.4196 10.1114 12.6906C9.15177 12.9616 8.14303 13.0118 7.16113 12.8374C7.39962 13.4439 7.73625 14.0072 8.15759 14.5048C8.3123 14.5048 8.45781 14.5048 8.61806 14.5048H8.62727C9.65791 14.4678 10.672 14.2344 11.6148 13.8173C13.0639 13.1785 14.2961 12.1335 15.1616 10.8092C16.027 9.48488 16.4886 7.9382 16.4902 6.35704C16.4902 6.25961 16.4902 6.16217 16.4902 6.06106L16.4847 6.03532Z" fill="black"/>
<path d="M8.63086 6.88281H8.62165C8.41537 6.88281 8.23118 6.88281 8.02304 6.88281H8.01199C6.9814 6.92019 5.96741 7.15355 5.02448 7.57038C3.57596 8.20976 2.34446 9.25496 1.47937 10.5792C0.614289 11.9034 0.152797 13.4497 0.150879 15.0306C0.150879 15.128 0.150879 15.2255 0.150879 15.3266V15.3394C0.189832 16.3229 0.408297 17.2911 0.795535 18.1963C1.70421 18.5801 2.67545 18.795 3.66149 18.8306C3.76463 18.8306 3.86225 18.8306 3.96171 18.8306C5.24172 18.8304 6.50369 18.5293 7.64546 17.9518C7.16614 17.6228 6.72068 17.2471 6.31563 16.8304C4.9971 17.3292 3.55322 17.3936 2.19536 17.0142L2.01117 16.9609L1.9596 16.7771C1.79986 16.2023 1.7187 15.6087 1.71831 15.0122C1.71719 13.3013 2.38534 11.6575 3.58045 10.4309C3.69649 10.3114 3.81621 10.1974 3.93593 10.0908C5.03894 9.11009 6.44015 8.52781 7.91456 8.43745C9.38898 8.3471 10.851 8.75393 12.066 9.59261C11.9705 8.87264 11.7778 8.16888 11.4931 7.50052C10.5849 7.12186 9.61474 6.9125 8.63086 6.88281Z" fill="black"/>
</g>
<defs>
<clipPath id="clip0_312_182">
<rect width="75.2963" height="19" fill="white" transform="translate(0.290527 0.5)"/>
</clipPath>
</defs>
</svg>
